<svg width="19" height="21" xmlns="http://www.w3.org/2000/svg">
  <g fill="#FFF" fill-rule="nonzero">
    <path d="M.003 15.4c0 .511.286.984.743 1.23l7.827 4.184V10.219L.003 5.74v9.66zM5.717 14c.789 0 1.429.626 1.429 1.4 0 .773-.64 1.4-1.429 1.4-.79 0-1.428-.627-1.428-1.4 0-.774.638-1.4 1.428-1.4zM2.86 9.8c.788 0 1.428.626 1.428 1.4 0 .773-.64 1.4-1.428 1.4-.79 0-1.429-.627-1.429-1.4 0-.774.64-1.4 1.429-1.4zM9.973.17a1.456 1.456 0 0 0-1.37 0C8.34.31.85 4.303.609 4.473l8.678 4.536 8.679-4.538C17.729 4.302 10.23.31 9.973.17zM10 20.814l7.83-4.185a1.4 1.4 0 0 0 .744-1.229V5.74L10 10.221v10.593zm4.289-9.614c.788 0 1.428.626 1.428 1.4 0 .773-.64 1.4-1.428 1.4-.79 0-1.429-.627-1.429-1.4 0-.774.639-1.4 1.429-1.4z"/>
  </g>
</svg>
